<svg width="320" height="129" viewBox="0 0 320 129" fill="none" xmlns="http://www.w3.org/2000/svg">
<path d="M315.476 100.039L267.024 127.8C265.648 128.586 264.088 129 262.5 129C260.912 129 259.352 128.586 257.976 127.8L209.524 100.039C208.15 99.2484 207.01 98.1143 206.216 96.7496C205.422 95.385 205.003 93.8374 205 92.2617V36.7382C205.003 35.1624 205.422 33.6148 206.216 32.2502C207.01 30.8855 208.15 29.7514 209.524 28.9612L257.976 1.19937C259.352 0.413565 260.912 0 262.5 0C264.088 0 265.648 0.413565 267.024 1.19937L315.476 28.9612C316.85 29.7514 317.99 30.8854 318.784 32.2501C319.578 33.6148 319.997 35.1624 320 36.7382V92.2619C319.997 93.8377 319.578 95.3853 318.784 96.75C317.99 98.1147 316.85 99.2487 315.476 100.039ZM257.976 11.5687L214.049 36.7382V86.5147L257.976 61.874V11.5687ZM262.515 69.6431L218.077 94.5703L262.499 120.023L306.938 94.5619L262.515 69.6431ZM310.952 36.7382L267.024 11.5687V61.8566L310.952 86.4982V36.7382Z" fill="url(#paint0_linear_5536_3)"/>
<path d="M129.778 0H16.2222C11.9198 0 7.79363 1.69888 4.75138 4.7229C1.70912 7.74693 0 11.8484 0 16.125V112.875C0 117.152 1.70912 121.253 4.75138 124.277C7.79363 127.301 11.9198 129 16.2222 129H129.778C138.7 129 146 121.744 146 112.875V16.125C146 11.8484 144.291 7.74693 141.249 4.7229C138.206 1.69888 134.08 0 129.778 0ZM129.778 112.875H16.2222V32.25H129.778V112.875Z" fill="url(#paint1_linear_5536_3)"/>
<circle cx="17" cy="15" r="5" fill="#17202D"/>
<ellipse cx="30.5" cy="15" rx="5.5" ry="5" fill="#17202D"/>
<circle cx="44" cy="15" r="5" fill="#17202D"/>
<defs>
<linearGradient id="paint0_linear_5536_3" x1="320" y1="0" x2="180.592" y2="36.9753" gradientUnits="userSpaceOnUse">
<stop stop-color="#D4355B"/>
<stop offset="1" stop-color="#733570"/>
</linearGradient>
<linearGradient id="paint1_linear_5536_3" x1="0" y1="0" x2="170.146" y2="57.2929" gradientUnits="userSpaceOnUse">
<stop stop-color="#D4355B"/>
<stop offset="1" stop-color="#733570"/>
</linearGradient>
</defs>
</svg>
