<svg width="382" height="197" viewBox="0 0 382 197" fill="none" xmlns="http://www.w3.org/2000/svg">
<path d="M333.109 59.0901C337.866 64.0785 343.172 64.8745 349.029 61.4781C346.572 57.5394 345.986 53.2552 346.641 48.7422H335.232C335.738 52.708 335.602 56.4007 333.109 59.0901Z" fill="#FFB8B8"/>
<path d="M326.35 185.683L334.354 189.197L342.709 125.255L351.928 190.073L360.646 186.754C360.894 182.233 361.525 140.562 360.646 128.773C360.272 123.761 360.167 118.216 359.538 116.184L323.617 116.769L326.35 185.683Z" fill="#62687A"/>
<path d="M309.476 87.7978L291.613 74.0432C291.428 73.9004 291.224 73.7834 291.007 73.6952L288.411 72.6389C286.326 71.7905 282.354 68.9686 284.291 66.0629C285.853 63.7203 291.831 67.9169 292.567 69.4717C292.799 69.961 293.18 70.3642 293.656 70.6238L297.286 72.6129C297.374 72.6613 297.465 72.7045 297.558 72.7423L311.378 78.3439C311.762 78.4992 312.176 78.5608 312.588 78.5237C313 78.4865 313.396 78.3517 313.745 78.1303L316.251 76.5416C316.608 76.3156 317.014 76.1798 317.435 76.146C317.855 76.1123 318.278 76.1816 318.666 76.3479C319.054 76.5143 319.396 76.7727 319.661 77.1008C319.927 77.4288 320.109 77.8167 320.191 78.2307L321.019 82.4101C321.138 83.0119 321.04 83.6364 320.743 84.1732C320.446 84.7099 319.969 85.1242 319.396 85.3427L311.986 88.167C311.571 88.3252 311.122 88.3743 310.683 88.3097C310.243 88.2451 309.828 88.0688 309.476 87.7978V87.7978Z" fill="#FFB8B8"/>
<path d="M312.08 78.6936C310.518 82.4036 309.283 84.473 313.057 87.871L318.976 86.8946L328.37 80.9485L324.072 60.1406C322.919 60.4701 321.291 61.1365 320.407 61.9464C319.522 62.7563 316.736 65.5131 316.306 66.6328L312.08 78.6936Z" fill="#7F8BD7"/>
<path d="M321.994 116.566H359.383C353.332 100.26 353.921 83.489 359.073 66.3988C359.16 66.1151 359.144 65.81 359.03 65.5363C358.916 65.2626 358.71 65.0374 358.447 64.8994L347.715 59.2898C343.503 62.0308 338.975 61.1885 334.192 57.4336L322.524 60.6156C325.701 79.6914 325.791 98.3755 321.994 116.566Z" fill="#7F8BD7"/>
<path d="M331.333 195.747L315.749 196.407C315.07 196.436 314.405 196.213 313.881 195.78C313.357 195.348 313.012 194.737 312.911 194.066V194.066C312.81 193.387 312.965 192.695 313.347 192.126C313.73 191.556 314.311 191.15 314.977 190.986L317.621 190.338L328.01 184.316C329.549 185.91 331.669 187.258 334.26 188.406L334.29 192.64C334.296 193.44 333.991 194.211 333.439 194.79C332.888 195.37 332.133 195.713 331.333 195.747V195.747Z" fill="#2F2E41"/>
<path d="M381.758 196.437H37.1699V195.586H381.912L381.758 196.437Z" fill="#3F3D56"/>
<path d="M354.721 195.555L370.305 196.216C370.984 196.245 371.649 196.021 372.173 195.589C372.697 195.157 373.042 194.546 373.143 193.874V193.874C373.244 193.196 373.089 192.504 372.707 191.934C372.324 191.365 371.743 190.958 371.077 190.795L368.433 190.147L358.044 184.125C356.505 185.719 354.385 187.067 351.794 188.214L351.764 192.448C351.758 193.248 352.063 194.019 352.615 194.599C353.166 195.179 353.921 195.521 354.721 195.555V195.555Z" fill="#2F2E41"/>
<path d="M339.714 53.5136C344.404 53.5136 348.207 49.7111 348.207 45.0205C348.207 40.3298 344.404 36.5273 339.714 36.5273C335.023 36.5273 331.221 40.3298 331.221 45.0205C331.221 49.7111 335.023 53.5136 339.714 53.5136Z" fill="#FFB8B8"/>
<path d="M354.935 119.53L355.879 99.232L361.883 100.365L360.537 115.614C360.534 116.187 361.959 118.809 361.709 119.324C361.459 119.839 360.985 121.31 360.537 121.667C360.089 122.024 359.973 124.402 359.415 124.531C358.857 124.659 357.972 125.307 357.413 125.182C356.885 125.064 356.313 124.854 355.879 124.531C355.446 124.207 354.552 123.312 354.289 122.839C354.026 122.366 354.781 121.661 354.735 121.122C354.688 120.583 354.757 120.04 354.935 119.53Z" fill="#FFB8B8"/>
<path d="M364.127 72.3153V84.5586L362.472 97.6486L365.197 98.4295L364.127 102.529L353.679 101.358C353.836 98.3904 353.043 90.3536 352.725 84.5586L356.702 64.1406C358.248 64.8729 360.606 65.6621 361.614 67.0444C362.621 68.4266 363.902 70.6195 364.127 72.3153Z" fill="#7F8BD7"/>
<path d="M348.965 41.0596C349.134 39.9258 348.894 38.1106 348.587 37.0062C348.28 35.9018 347.743 34.8745 347.012 33.9914C345.856 32.6229 343.512 30.8312 340.564 30.5023C339.821 30.4193 339.039 30.4294 338.228 30.5626C337.205 30.7307 336.279 30.9915 335.442 31.3241C334.697 31.6204 334.023 31.9737 333.414 32.3691C332.666 32.8553 332.017 33.4053 331.458 33.9914C330.952 34.5216 330.519 35.0815 330.154 35.6506C329.865 36.1001 329.617 36.5553 329.408 37.0062C329.084 37.704 329.174 38.3914 329.019 39.0312C328.9 39.5214 328.503 39.9837 328.47 40.4011C328.41 41.1608 328.482 41.7722 328.651 42.1341C328.928 42.726 329.197 44.2451 329.695 45.1163C329.889 45.4545 330.28 45.1208 330.475 45.4544C331.343 46.9321 332.062 48.497 332.062 48.497C332.062 48.497 330.214 44.0165 332.316 43.1574C332.654 43.0191 333.148 43.3955 333.752 43.1574C334.25 42.9609 334.484 41.6236 335.104 41.3976C335.593 41.2195 336.936 43.3345 337.471 43.1574C338.069 42.9594 338.202 41.5717 338.823 41.3976C339.406 41.2344 339.991 40.523 340.564 40.4011C340.89 40.3316 341.212 40.2705 341.527 40.2195C341.875 40.1632 342.214 40.1193 342.542 40.0901C343.695 39.9871 344.699 40.0676 345.389 40.4384C346.193 40.8418 346.875 41.451 347.366 42.204C347.858 42.9569 348.141 43.8266 348.187 44.7246L348.965 41.0596Z" fill="#2F2E41"/>
<rect x="21.1289" y="0.445312" width="163.596" height="117.914" fill="#7F8BD7"/>
<rect x="31.2969" y="19.5898" width="140.169" height="94.0968" rx="1.80183" fill="#737DC2"/>
<rect x="21.1289" y="0.445312" width="163.596" height="8.9802" fill="white"/>
<path d="M173.561 64.9641V62.1435C173.561 62.1435 185.869 55.2201 195.869 62.1435V64.7077L173.561 64.9641Z" fill="#535461"/>
<path d="M285.613 64.9641V62.1435C285.613 62.1435 297.922 55.2201 307.922 62.1435V64.7077L285.613 64.9641Z" fill="#535461"/>
<path d="M210.509 64.7404H198.46C198.46 64.7404 195.384 61.1513 185.129 61.4076C174.874 61.664 172.823 64.7404 172.823 64.7404C172.823 64.7404 162.697 71.5341 160.39 79.9942C160.39 79.9942 147.956 117.296 147.7 146.521C147.443 175.747 158.723 179.849 164.62 180.618C170.516 181.387 181.027 180.362 191.282 154.469L195.64 139.343C195.64 139.343 196.409 130.37 205.638 136.01C214.868 141.65 223.071 132.934 223.071 132.934H257.681C257.681 132.934 269.217 140.112 279.728 134.472C279.728 134.472 283.83 129.088 287.676 147.29C287.676 147.29 299.468 184.72 317.67 180.874C335.872 177.029 333.822 145.752 333.822 145.752C333.822 145.752 331.386 97.9398 321.388 81.0197C321.388 81.0197 311.774 63.4586 305.365 62.6895C305.365 62.6895 291.521 60.1258 286.137 62.4331L283.061 64.9968L210.509 64.7404Z" fill="white"/>
<path d="M182.546 112.112C194.864 112.112 204.85 102.126 204.85 89.8078C204.85 77.4897 194.864 67.5039 182.546 67.5039C170.228 67.5039 160.242 77.4897 160.242 89.8078C160.242 102.126 170.228 112.112 182.546 112.112Z" fill="#535461"/>
<path d="M298.96 112.112C311.278 112.112 321.264 102.126 321.264 89.8078C321.264 77.4897 311.278 67.5039 298.96 67.5039C286.642 67.5039 276.656 77.4897 276.656 89.8078C276.656 102.126 286.642 112.112 298.96 112.112Z" fill="#535461"/>
<path d="M186.466 84.8641L183.49 87.496C183.238 87.7179 182.914 87.8402 182.578 87.8402C182.243 87.8402 181.918 87.7179 181.666 87.496L178.686 84.8641C178.54 84.7356 178.423 84.5778 178.342 84.401C178.262 84.2241 178.22 84.0323 178.219 83.838V76.5963C178.219 76.2307 178.365 75.8803 178.624 75.6221C178.883 75.3638 179.233 75.2188 179.599 75.2188H185.563C185.928 75.2181 186.279 75.3625 186.538 75.6204C186.797 75.8783 186.942 76.2284 186.943 76.5937V83.8329C186.942 84.0288 186.898 84.2221 186.816 84.4C186.734 84.5778 186.614 84.736 186.466 84.8641Z" fill="#E25D79"/>
<path d="M186.484 94.7822L183.508 92.1528C183.256 91.931 182.932 91.8086 182.596 91.8086C182.26 91.8086 181.936 91.931 181.684 92.1528L178.703 94.7848C178.557 94.9132 178.44 95.071 178.36 95.2479C178.28 95.4247 178.237 95.6166 178.236 95.8109V103.045C178.236 103.41 178.38 103.761 178.638 104.02C178.896 104.278 179.246 104.424 179.611 104.425H185.581C185.946 104.426 186.297 104.281 186.555 104.023C186.814 103.765 186.96 103.415 186.961 103.05V95.8134C186.959 95.6175 186.916 95.4242 186.833 95.2463C186.751 95.0685 186.632 94.9103 186.484 94.7822V94.7822Z" fill="#E25D79"/>
<path d="M177.593 93.7329L180.225 90.752C180.446 90.5 180.569 90.1758 180.569 89.8401C180.569 89.5044 180.446 89.1801 180.225 88.9281L177.593 85.9473C177.464 85.8017 177.306 85.6848 177.13 85.6044C176.953 85.5239 176.761 85.4817 176.567 85.4805H169.333C168.967 85.4811 168.617 85.6269 168.358 85.8856C168.1 86.1443 167.955 86.495 167.955 86.8606V92.8247C167.954 93.1901 168.099 93.5408 168.357 93.7996C168.615 94.0584 168.965 94.2042 169.33 94.2048H176.569C176.763 94.2028 176.955 94.1597 177.131 94.0783C177.308 93.997 177.465 93.8792 177.593 93.7329V93.7329Z" fill="#E25D79"/>
<path d="M187.505 93.7354L184.878 90.752C184.656 90.5003 184.533 90.176 184.533 89.8401C184.533 89.5042 184.656 89.1799 184.878 88.9281L187.51 85.9473C187.639 85.8016 187.796 85.6846 187.973 85.6041C188.15 85.5237 188.342 85.4815 188.536 85.4805H195.77C196.136 85.4798 196.486 85.6243 196.745 85.8821C197.004 86.14 197.15 86.4901 197.15 86.8554V92.8248C197.151 93.1901 197.007 93.5408 196.749 93.7996C196.491 94.0584 196.141 94.2042 195.775 94.2049H188.539C188.343 94.2046 188.15 94.1625 187.971 94.0816C187.793 94.0006 187.634 93.8826 187.505 93.7354V93.7354Z" fill="#E25D79"/>
<path d="M212.809 130.29C221.731 130.29 228.963 123.057 228.963 114.135C228.963 105.213 221.731 97.9805 212.809 97.9805C203.887 97.9805 196.654 105.213 196.654 114.135C196.654 123.057 203.887 130.29 212.809 130.29Z" fill="#535461"/>
<path d="M268.678 130.29C277.6 130.29 284.833 123.057 284.833 114.135C284.833 105.213 277.6 97.9805 268.678 97.9805C259.756 97.9805 252.523 105.213 252.523 114.135C252.523 123.057 259.756 130.29 268.678 130.29Z" fill="#535461"/>
<path d="M212.791 125C218.739 125 223.561 120.179 223.561 114.231C223.561 108.283 218.739 103.461 212.791 103.461C206.843 103.461 202.021 108.283 202.021 114.231C202.021 120.179 206.843 125 212.791 125Z" fill="#E6E6E6"/>
<path d="M212.814 121.582C211.343 121.582 209.905 121.145 208.681 120.328C207.458 119.51 206.504 118.349 205.941 116.989C205.378 115.63 205.231 114.134 205.518 112.691C205.805 111.248 206.514 109.922 207.554 108.882C208.594 107.842 209.92 107.133 211.363 106.846C212.806 106.559 214.302 106.706 215.661 107.269C217.02 107.832 218.182 108.786 219 110.009C219.817 111.233 220.253 112.671 220.253 114.142C220.251 116.115 219.467 118.006 218.072 119.4C216.677 120.795 214.787 121.579 212.814 121.582V121.582ZM212.814 107.216C211.444 107.216 210.105 107.622 208.966 108.383C207.827 109.145 206.94 110.226 206.415 111.492C205.891 112.757 205.754 114.15 206.021 115.494C206.288 116.837 206.948 118.071 207.917 119.04C208.885 120.009 210.119 120.668 211.463 120.935C212.807 121.203 214.199 121.066 215.465 120.541C216.73 120.017 217.812 119.129 218.573 117.99C219.334 116.851 219.74 115.512 219.74 114.142C219.738 112.306 219.008 110.546 217.709 109.247C216.411 107.949 214.651 107.218 212.814 107.216V107.216Z" fill="#535461"/>
<path d="M268.709 125C274.657 125 279.479 120.179 279.479 114.231C279.479 108.283 274.657 103.461 268.709 103.461C262.761 103.461 257.939 108.283 257.939 114.231C257.939 120.179 262.761 125 268.709 125Z" fill="#E6E6E6"/>
<path d="M268.683 121.582C267.212 121.582 265.774 121.145 264.55 120.328C263.327 119.51 262.373 118.349 261.81 116.989C261.247 115.63 261.1 114.134 261.387 112.691C261.674 111.248 262.383 109.922 263.423 108.882C264.463 107.842 265.789 107.133 267.232 106.846C268.675 106.559 270.171 106.706 271.53 107.269C272.89 107.832 274.051 108.786 274.869 110.009C275.686 111.233 276.123 112.671 276.123 114.142C276.12 116.115 275.336 118.006 273.941 119.4C272.547 120.795 270.656 121.579 268.683 121.582ZM268.683 107.216C267.313 107.216 265.974 107.622 264.835 108.383C263.696 109.145 262.809 110.226 262.284 111.492C261.76 112.757 261.623 114.15 261.89 115.494C262.158 116.837 262.817 118.071 263.786 119.04C264.754 120.009 265.989 120.668 267.332 120.935C268.676 121.203 270.068 121.066 271.334 120.541C272.599 120.017 273.681 119.129 274.442 117.99C275.203 116.851 275.609 115.512 275.609 114.142C275.607 112.306 274.877 110.546 273.579 109.247C272.28 107.949 270.52 107.218 268.683 107.216V107.216Z" fill="#535461"/>
<path d="M241.258 120.571C243.809 120.571 245.877 118.502 245.877 115.951C245.877 113.4 243.809 111.332 241.258 111.332C238.707 111.332 236.639 113.4 236.639 115.951C236.639 118.502 238.707 120.571 241.258 120.571Z" fill="#535461"/>
<path d="M202.962 66.8438C202.488 66.8443 202.033 67.0331 201.697 67.3687C201.361 67.7044 201.172 68.1595 201.172 68.6342V74.0235C201.172 74.4982 201.361 74.9533 201.697 75.289C202.033 75.6246 202.488 75.8134 202.962 75.8139H204.246C204.72 75.8134 205.175 75.6246 205.511 75.289C205.847 74.9533 206.035 74.4982 206.036 74.0235V68.6342C206.035 68.1595 205.847 67.7044 205.511 67.3687C205.175 67.0331 204.72 66.8443 204.246 66.8438H202.962Z" fill="#535461"/>
<path d="M277.785 66.8438C277.31 66.8442 276.855 67.033 276.519 67.3687C276.183 67.7044 275.995 68.1595 275.994 68.6342V74.0235C275.995 74.4982 276.183 74.9533 276.519 75.289C276.855 75.6247 277.31 75.8135 277.785 75.8139H279.068C279.542 75.8135 279.998 75.6247 280.333 75.289C280.669 74.9533 280.858 74.4982 280.858 74.0235V68.6342C280.858 68.1595 280.669 67.7044 280.333 67.3687C279.998 67.033 279.542 66.8442 279.068 66.8438H277.785Z" fill="#535461"/>
<path d="M299.168 82.3366C302.568 82.3366 305.325 79.5802 305.325 76.18C305.325 72.7798 302.568 70.0234 299.168 70.0234C295.768 70.0234 293.012 72.7798 293.012 76.18C293.012 79.5802 295.768 82.3366 299.168 82.3366Z" fill="#17202D"/>
<path d="M286.135 95.528C289.535 95.528 292.292 92.7716 292.292 89.3714C292.292 85.9712 289.535 83.2148 286.135 83.2148C282.735 83.2148 279.979 85.9712 279.979 89.3714C279.979 92.7716 282.735 95.528 286.135 95.528Z" fill="#17202D"/>
<path d="M312.785 94.7429C316.186 94.7429 318.942 91.9865 318.942 88.5863C318.942 85.1861 316.186 82.4297 312.785 82.4297C309.385 82.4297 306.629 85.1861 306.629 88.5863C306.629 91.9865 309.385 94.7429 312.785 94.7429Z" fill="#17202D"/>
<path d="M300.223 108.247C303.623 108.247 306.38 105.49 306.38 102.09C306.38 98.69 303.623 95.9336 300.223 95.9336C296.823 95.9336 294.066 98.69 294.066 102.09C294.066 105.49 296.823 108.247 300.223 108.247Z" fill="#17202D"/>
<path d="M214.527 63.3164C213.153 63.318 211.834 63.8648 210.862 64.837C209.89 65.8091 209.343 67.1272 209.342 68.502V91.4466C209.343 92.8214 209.89 94.1395 210.862 95.1116C211.834 96.0838 213.153 96.6306 214.527 96.6322H267.211C268.585 96.6306 269.903 96.0838 270.876 95.1116C271.848 94.1395 272.395 92.8214 272.396 91.4466V68.502C272.395 67.1272 271.848 65.8091 270.876 64.837C269.903 63.8648 268.585 63.318 267.211 63.3164H214.527Z" fill="#535461"/>
<path d="M303.426 79.1073H295.074L299.106 72.1953L303.426 79.1073ZM295.968 78.594H302.5L299.121 73.188L295.968 78.594Z" fill="#E25D79"/>
<path d="M289.614 92.4285H282.686V86.2695H289.614V92.4285ZM283.199 91.9153H289.101V86.7828H283.199V91.9153Z" fill="#E25D79"/>
<path d="M312.808 92.4253C312.047 92.4253 311.303 92.1995 310.67 91.7766C310.037 91.3536 309.543 90.7524 309.252 90.049C308.961 89.3456 308.884 88.5717 309.033 87.825C309.181 87.0783 309.548 86.3924 310.086 85.854C310.625 85.3157 311.311 84.9491 312.057 84.8005C312.804 84.652 313.578 84.7282 314.281 85.0196C314.985 85.3109 315.586 85.8043 316.009 86.4373C316.432 87.0703 316.658 87.8146 316.658 88.5759C316.657 89.5965 316.251 90.5749 315.529 91.2966C314.807 92.0182 313.829 92.4242 312.808 92.4253ZM312.808 85.2398C312.149 85.2398 311.504 85.4354 310.955 85.802C310.406 86.1686 309.979 86.6896 309.726 87.2992C309.474 87.9088 309.408 88.5796 309.536 89.2268C309.665 89.8739 309.983 90.4684 310.449 90.9349C310.916 91.4015 311.51 91.7192 312.158 91.8479C312.805 91.9767 313.475 91.9106 314.085 91.6581C314.695 91.4056 315.216 90.978 315.582 90.4294C315.949 89.8807 316.144 89.2357 316.144 88.5759C316.143 87.6914 315.792 86.8434 315.166 86.218C314.541 85.5926 313.693 85.2408 312.808 85.2398Z" fill="#E25D79"/>
<path d="M297.453 99.0981L297.09 99.4609L302.864 105.235L303.227 104.872L297.453 99.0981Z" fill="#E25D79"/>
<path d="M302.992 99.0723L297.09 104.719L297.445 105.09L303.346 99.4432L302.992 99.0723Z" fill="#E25D79"/>
<path d="M63.1172 95.6523C63.1172 95.6523 33.5041 104.668 30.9205 110.678C28.3368 116.688 11.966 150.79 11.966 150.79H24.8097L43.6402 122.004L75.4395 105.361L63.1172 95.6523Z" fill="#62687A"/>
<path d="M21.4002 149.333C21.4002 149.333 24.1917 146.532 24.9893 148.399C25.7869 150.266 28.1797 159.836 28.1797 159.836C28.1797 159.836 24.7899 163.57 17.811 161.236C17.811 161.236 16.0164 159.602 13.2249 161.236C10.4333 162.87 0.0646202 159.602 0.463416 154.234C0.862213 148.866 11.4303 149.333 11.4303 149.333C11.4303 149.333 15.8815 143.496 16.4475 145.714C17.0134 147.932 16.2158 148.166 16.2158 148.166C16.2158 148.166 19.805 152.6 21.4002 149.333Z" fill="#62687A"/>
<path d="M90.2286 100.997C90.2286 100.997 94.204 114.628 78.5011 118.325C62.7983 122.022 58.0278 125.025 58.0278 125.025V162.264L47.128 159.56C47.128 159.56 35.7656 113.704 44.3127 109.083C52.8598 104.462 70.9479 99.1484 70.9479 99.1484L90.2286 100.997Z" fill="#848589"/>
<path d="M56.2195 161.155C56.2195 161.155 53.4263 159.556 53.0273 159.556C53.0273 159.556 51.2737 154.927 48.0606 155.415L41.0568 167.092C41.0568 167.092 30.4828 175.769 37.8646 178.053C45.2465 180.336 51.0322 178.509 51.0322 178.509L54.0249 175.997C54.0249 175.997 53.6258 173.486 56.2195 173.942C56.2195 173.942 61.6062 171.431 61.4067 169.604C61.2072 167.777 56.9695 159.825 56.9695 159.825L56.2195 161.155Z" fill="#848589"/>
<path d="M59.8306 54.4698C56.1416 56.7077 50.974 54.9332 48.2885 50.5064C45.603 46.0795 46.4166 40.6767 50.1056 38.4388C53.7946 36.2009 58.9622 37.9754 61.6477 42.4022C64.3331 46.829 63.5196 52.2319 59.8306 54.4698Z" fill="#FFB8B8"/>
<path d="M60.9649 43.7031C60.9649 43.7031 68.0567 49.6412 69.4357 49.8696C70.8147 50.098 62.9349 61.2891 62.9349 61.2891C62.9349 61.2891 59.192 54.209 56.828 53.2955C54.4641 52.3819 60.9649 43.7031 60.9649 43.7031Z" fill="#FFB8B8"/>
<path d="M66.1325 51.1601C66.1325 51.1601 68.804 48.457 70.5995 48.457C72.3951 48.457 87.9604 57.6074 88.3647 62.1225C89.041 69.6747 90.2855 86.5187 90.2723 95.115C90.2583 104.27 90.8708 107.024 90.8708 107.024C90.8708 107.024 92.0678 100.273 78.7012 103.067C78.7012 103.067 62.741 99.1095 59.948 99.1095C58.7805 99.1095 63.6248 96.6131 62.9859 89.844C62.0963 80.4183 55.9579 65.8242 55.9579 65.8242L60.5003 57.6073C60.5003 57.6073 62.5415 62.1 66.1325 51.1601Z" fill="white"/>
<path d="M59.2345 64.0117L56.2637 65.8662L52.6988 91.3656L47.7475 104.579C47.7475 104.579 53.0949 102.424 53.491 105.008L61.413 91.5974L63.3652 79.8247L59.2345 64.0117Z" fill="white"/>
<path d="M56.3512 38.8767L52.0225 39.5057C52.1052 40.5305 51.8507 41.2927 51.0702 41.7774C50.7033 42.0053 50.4692 42.5011 50.144 42.8028C49.3618 43.5283 48.5821 43.0212 48.1405 44.0655L47.5546 45.879C47.4025 46.2101 48.0603 47.1464 47.8106 47.3841C47.5609 47.6217 48.1197 50.0681 47.8106 50.1759C47.5015 50.2838 46.3307 48.051 46.0097 48.0124C45.6888 47.9739 45.3775 47.8618 45.0939 47.6828C44.2432 47.0885 43.8097 45.953 43.4269 44.888C42.9696 43.6155 42.5029 42.2483 42.7318 40.8951C42.9778 39.4412 43.9988 38.2329 44.0451 36.752C44.0658 36.0896 43.9456 35.2637 44.4256 34.9066C44.6465 34.7858 44.8843 34.7124 45.1275 34.6898C46.2334 34.4212 46.8492 33.0896 47.6739 32.1913C49.4022 30.3089 52.0563 30.3583 54.4196 30.5225C55.0961 30.5253 55.7673 30.6615 56.4047 30.9251C57.1253 31.3455 57.7624 31.9365 58.2751 32.6602C59.5425 34.2328 60.7764 35.88 61.6125 37.8039C62.4486 39.7277 62.8605 41.9755 62.4061 44.0655C62.4508 43.8644 60.9466 42.5485 60.7594 42.3376C60.1715 41.6752 60.118 41.3589 59.7998 40.5969C59.0582 38.8204 58.027 38.6332 56.3512 38.8767Z" fill="#2F2E41"/>
<path opacity="0.1" d="M68.7949 68.6719L68.2026 85.0073L59.4223 97.1804L67.413 83.6071L68.7949 68.6719Z" fill="black"/>
<path opacity="0.1" d="M84.8223 72.9844L77.8172 91.7496L68.8106 100.321L78.4178 92.6763L84.8223 72.9844Z" fill="black"/>
<path d="M46.9146 88.4004L42.7205 91.7781C42.5117 91.9708 42.3658 92.2418 42.3074 92.5456C42.2491 92.8494 42.2818 93.1674 42.4001 93.4462L42.961 94.8015L42.8311 94.9061L43.4685 96.446L43.5984 96.3414L48.2182 107.503C48.2662 107.65 48.3417 107.782 48.4392 107.89C48.5368 107.998 48.6537 108.079 48.7816 108.126C48.9094 108.174 49.0447 108.188 49.1776 108.166C49.3105 108.144 49.4375 108.088 49.5492 108.001L53.4906 104.826C53.7308 104.605 53.8985 104.293 53.9656 103.944C54.0327 103.595 53.9951 103.229 53.859 102.908L48.0262 88.8159C47.9861 88.6933 47.9231 88.583 47.8416 88.4928C47.7602 88.4027 47.6625 88.3352 47.5557 88.2953C47.449 88.2554 47.3359 88.2442 47.2249 88.2624C47.114 88.2805 47.0079 88.3277 46.9146 88.4004Z" fill="#3F3D56"/>
<path d="M53.5723 102.608L48.9937 106.188L43.0207 92.1808L47.5996 88.6016L53.5723 102.608Z" fill="white"/>
<path d="M55.3315 99.5586C55.3315 99.5586 47.5021 105.887 50.2306 107.867C52.959 109.846 58.6426 101.061 58.6426 101.061L55.3315 99.5586Z" fill="#FFB8B8"/>
<path d="M74.8877 51.9219C74.8877 51.9219 89.2408 55.8003 86.2555 66.4967C85.5353 69.0769 84.6647 71.8466 83.7579 74.5642C80.9059 83.1123 77.6975 91.1449 77.6975 91.1449L68.7019 100.648L56.6012 104.632L55.208 103.237C55.208 103.237 54.8099 98.8184 56.6012 98.3534C58.3924 97.8883 61.1787 96.0281 61.1787 96.0281L68.3435 83.7039C68.3435 83.7039 64.5386 52.6195 74.8877 51.9219Z" fill="white"/>
<circle cx="27.2123" cy="4.98772" r="2.14787" fill="#17202D"/>
<circle cx="34.2475" cy="4.98772" r="2.14787" fill="#7F8BD7"/>
<circle cx="42.0248" cy="4.98772" r="2.14787" fill="#E25D79"/>
</svg>
