<svg width="321" height="204" viewBox="0 0 321 204" fill="none" xmlns="http://www.w3.org/2000/svg">
<path d="M320.874 42.9119C320.874 51.7669 318.121 60.403 312.998 67.6252C307.874 74.8474 300.632 80.2985 292.275 83.2243C292.009 83.3169 291.739 83.4095 291.469 83.4941V40.1084H235.572C235.588 39.8385 235.608 39.5686 235.633 39.3028H291.469V30.8278C291.469 30.2938 291.257 29.7816 290.879 29.404C290.501 29.0263 289.989 28.814 289.455 28.8138H237.864C237.957 28.544 238.054 28.2741 238.158 28.0082C241.653 18.6271 248.333 10.7722 257.031 5.81575C265.729 0.859299 275.892 -0.883567 285.744 0.891635C295.597 2.66684 304.512 7.84724 310.933 15.5278C317.354 23.2084 320.873 32.9009 320.874 42.9119Z" fill="white"/>
<path d="M289.455 28.0078H93.2903C92.5428 28.0086 91.8261 28.306 91.2975 28.8346C90.7689 29.3632 90.4715 30.0799 90.4707 30.8274V163.752C90.4715 164.499 90.7689 165.216 91.2975 165.745C91.8261 166.273 92.5428 166.571 93.2903 166.572H289.455C290.202 166.571 290.919 166.273 291.447 165.745C291.976 165.216 292.273 164.499 292.274 163.752V30.8274C292.273 30.0799 291.976 29.3632 291.447 28.8346C290.919 28.306 290.202 28.0086 289.455 28.0078ZM291.469 163.752C291.468 164.286 291.256 164.798 290.878 165.176C290.501 165.553 289.989 165.766 289.455 165.766H93.2903C92.7562 165.766 92.2441 165.553 91.8664 165.176C91.4888 164.798 91.2765 164.286 91.2763 163.752V30.8274C91.2765 30.2933 91.4888 29.7812 91.8664 29.4035C92.2441 29.0259 92.7562 28.8136 93.2903 28.8134H289.455C289.989 28.8136 290.501 29.0259 290.878 29.4035C291.256 29.7812 291.468 30.2933 291.469 30.8274V163.752Z" fill="#E25D79"/>
<path d="M291.871 39.3047H90.873V40.1103H291.871V39.3047Z" fill="#E25D79"/>
<path d="M97.7215 36.4664C99.0563 36.4664 100.138 35.3844 100.138 34.0496C100.138 32.7149 99.0563 31.6328 97.7215 31.6328C96.3867 31.6328 95.3047 32.7149 95.3047 34.0496C95.3047 35.3844 96.3867 36.4664 97.7215 36.4664Z" fill="#17202D"/>
<path d="M104.669 36.4664C106.004 36.4664 107.086 35.3844 107.086 34.0496C107.086 32.7149 106.004 31.6328 104.669 31.6328C103.334 31.6328 102.252 32.7149 102.252 34.0496C102.252 35.3844 103.334 36.4664 104.669 36.4664Z" fill="#44589E"/>
<path d="M111.618 36.4664C112.953 36.4664 114.035 35.3844 114.035 34.0496C114.035 32.7149 112.953 31.6328 111.618 31.6328C110.283 31.6328 109.201 32.7149 109.201 34.0496C109.201 35.3844 110.283 36.4664 111.618 36.4664Z" fill="#E25D79"/>
<mask id="path-7-inside-1_5239_753" fill="white">
<path d="M145.655 55.8008H110.208C109.461 55.8016 108.744 56.0989 108.215 56.6275C107.687 57.1561 107.39 57.8728 107.389 58.6204V94.0669C107.39 94.8145 107.687 95.5312 108.215 96.0598C108.744 96.5884 109.461 96.8857 110.208 96.8865H145.655C146.402 96.8857 147.119 96.5884 147.648 96.0598C148.176 95.5312 148.474 94.8145 148.474 94.0669V58.6204C148.474 57.8728 148.176 57.1561 147.648 56.6275C147.119 56.0989 146.402 55.8016 145.655 55.8008ZM147.669 94.0669C147.669 94.601 147.456 95.1131 147.079 95.4908C146.701 95.8684 146.189 96.0807 145.655 96.0809H110.208C109.674 96.0807 109.162 95.8684 108.784 95.4908C108.407 95.1131 108.194 94.601 108.194 94.0669V58.6204C108.194 58.0863 108.407 57.5742 108.784 57.1965C109.162 56.8189 109.674 56.6066 110.208 56.6064H145.655C146.189 56.6066 146.701 56.8189 147.079 57.1965C147.456 57.5742 147.669 58.0863 147.669 58.6204V94.0669Z"/>
</mask>
<path d="M145.655 55.8008H110.208C109.461 55.8016 108.744 56.0989 108.215 56.6275C107.687 57.1561 107.39 57.8728 107.389 58.6204V94.0669C107.39 94.8145 107.687 95.5312 108.215 96.0598C108.744 96.5884 109.461 96.8857 110.208 96.8865H145.655C146.402 96.8857 147.119 96.5884 147.648 96.0598C148.176 95.5312 148.474 94.8145 148.474 94.0669V58.6204C148.474 57.8728 148.176 57.1561 147.648 56.6275C147.119 56.0989 146.402 55.8016 145.655 55.8008ZM147.669 94.0669C147.669 94.601 147.456 95.1131 147.079 95.4908C146.701 95.8684 146.189 96.0807 145.655 96.0809H110.208C109.674 96.0807 109.162 95.8684 108.784 95.4908C108.407 95.1131 108.194 94.601 108.194 94.0669V58.6204C108.194 58.0863 108.407 57.5742 108.784 57.1965C109.162 56.8189 109.674 56.6066 110.208 56.6064H145.655C146.189 56.6066 146.701 56.8189 147.079 57.1965C147.456 57.5742 147.669 58.0863 147.669 58.6204V94.0669Z" fill="#3F3D56"/>
<path d="M110.208 55.8008V54.8008L110.207 54.8008L110.208 55.8008ZM107.389 58.6204L106.389 58.6193V58.6204H107.389ZM107.389 94.0669H106.389L106.389 94.068L107.389 94.0669ZM110.208 96.8865L110.207 97.8865H110.208V96.8865ZM145.655 96.8865V97.8865H145.656L145.655 96.8865ZM148.474 94.0669L149.474 94.068V94.0669H148.474ZM148.474 58.6204H149.474V58.6193L148.474 58.6204ZM147.669 94.0669L148.669 94.0673V94.0669H147.669ZM145.655 96.0809V97.0809H145.655L145.655 96.0809ZM110.208 96.0809L110.208 97.0809H110.208V96.0809ZM108.194 94.0669H107.194L107.194 94.0673L108.194 94.0669ZM108.194 58.6204L107.194 58.62V58.6204H108.194ZM110.208 56.6064V55.6064L110.208 55.6064L110.208 56.6064ZM145.655 56.6064L145.655 55.6064H145.655V56.6064ZM147.669 58.6204H148.669V58.62L147.669 58.6204ZM145.655 54.8008H110.208V56.8008H145.655V54.8008ZM110.207 54.8008C109.195 54.8019 108.224 55.2046 107.508 55.9204L108.923 57.3346C109.264 56.9933 109.727 56.8013 110.209 56.8008L110.207 54.8008ZM107.508 55.9204C106.792 56.6363 106.39 57.6069 106.389 58.6193L108.389 58.6215C108.389 58.1388 108.581 57.676 108.923 57.3346L107.508 55.9204ZM106.389 58.6204V94.0669H108.389V58.6204H106.389ZM106.389 94.068C106.39 95.0804 106.792 96.051 107.508 96.7669L108.923 95.3527C108.581 95.0113 108.389 94.5485 108.389 94.0658L106.389 94.068ZM107.508 96.7669C108.224 97.4827 109.195 97.8854 110.207 97.8865L110.209 95.8865C109.727 95.886 109.264 95.694 108.923 95.3527L107.508 96.7669ZM110.208 97.8865H145.655V95.8865H110.208V97.8865ZM145.656 97.8865C146.668 97.8854 147.639 97.4827 148.355 96.7669L146.941 95.3527C146.599 95.694 146.136 95.886 145.654 95.8865L145.656 97.8865ZM148.355 96.7669C149.071 96.051 149.473 95.0804 149.474 94.068L147.474 94.0658C147.474 94.5485 147.282 95.0113 146.941 95.3527L148.355 96.7669ZM149.474 94.0669V58.6204H147.474V94.0669H149.474ZM149.474 58.6193C149.473 57.6069 149.071 56.6363 148.355 55.9204L146.941 57.3346C147.282 57.676 147.474 58.1388 147.474 58.6215L149.474 58.6193ZM148.355 55.9204C147.639 55.2046 146.668 54.8019 145.656 54.8008L145.654 56.8008C146.136 56.8013 146.599 56.9933 146.941 57.3346L148.355 55.9204ZM146.669 94.0665C146.669 94.3355 146.562 94.5935 146.372 94.7837L147.786 96.1979C148.351 95.6328 148.668 94.8665 148.669 94.0673L146.669 94.0665ZM146.372 94.7837C146.181 94.9739 145.923 95.0808 145.654 95.0809L145.655 97.0809C146.454 97.0806 147.221 96.763 147.786 96.1979L146.372 94.7837ZM145.655 95.0809H110.208V97.0809H145.655V95.0809ZM110.209 95.0809C109.94 95.0808 109.682 94.9739 109.491 94.7837L108.077 96.1979C108.642 96.763 109.409 97.0806 110.208 97.0809L110.209 95.0809ZM109.491 94.7837C109.301 94.5935 109.194 94.3355 109.194 94.0665L107.194 94.0673C107.195 94.8665 107.512 95.6328 108.077 96.1979L109.491 94.7837ZM109.194 94.0669V58.6204H107.194V94.0669H109.194ZM109.194 58.6208C109.194 58.3518 109.301 58.0938 109.491 57.9036L108.077 56.4894C107.512 57.0545 107.195 57.8208 107.194 58.62L109.194 58.6208ZM109.491 57.9036C109.682 57.7134 109.94 57.6065 110.209 57.6064L110.208 55.6064C109.409 55.6067 108.642 55.9243 108.077 56.4894L109.491 57.9036ZM110.208 57.6064H145.655V55.6064H110.208V57.6064ZM145.654 57.6064C145.923 57.6065 146.181 57.7134 146.372 57.9036L147.786 56.4894C147.221 55.9243 146.454 55.6067 145.655 55.6064L145.654 57.6064ZM146.372 57.9036C146.562 58.0938 146.669 58.3518 146.669 58.6208L148.669 58.62C148.668 57.8208 148.351 57.0545 147.786 56.4894L146.372 57.9036ZM146.669 58.6204V94.0669H148.669V58.6204H146.669Z" fill="#17202D" mask="url(#path-7-inside-1_5239_753)"/>
<path d="M209.297 56.0039H173.851C173.157 56.0052 172.491 56.2815 172.001 56.7723C171.51 57.263 171.234 57.9281 171.232 58.6221V94.0686C171.234 94.7626 171.51 95.4278 172.001 95.9185C172.491 96.4092 173.157 96.6855 173.851 96.6868H209.297C209.991 96.6855 210.656 96.4092 211.147 95.9185C211.638 95.4278 211.914 94.7626 211.915 94.0686V58.6221C211.914 57.9281 211.638 57.263 211.147 56.7723C210.656 56.2815 209.991 56.0052 209.297 56.0039Z" fill="#17202D"/>
<path d="M235.997 57.1258C236.394 56.7287 236.932 56.5051 237.494 56.5039H272.939C273.501 56.5051 274.039 56.7287 274.436 57.1258C274.833 57.523 275.057 58.0614 275.058 58.6231V94.0677C275.057 94.6294 274.833 95.1678 274.436 95.565C274.039 95.9621 273.5 96.1858 272.939 96.1868H237.494C236.932 96.1858 236.394 95.9621 235.997 95.565C235.6 95.1679 235.376 94.6297 235.375 94.0681V58.6226C235.376 58.0611 235.6 57.5229 235.997 57.1258Z" stroke="#17202D"/>
<path d="M108.712 110.294C109.109 109.897 109.647 109.673 110.209 109.672H145.654C146.216 109.673 146.754 109.897 147.151 110.294C147.548 110.691 147.772 111.229 147.773 111.791V147.236C147.772 147.797 147.548 148.336 147.151 148.733C146.754 149.13 146.215 149.354 145.654 149.355H110.209C109.647 149.354 109.109 149.13 108.712 148.733C108.315 148.336 108.091 147.798 108.09 147.236V111.791C108.091 111.229 108.315 110.691 108.712 110.294Z" stroke="#17202D"/>
<path d="M209.297 109.172H173.851C173.157 109.173 172.491 109.449 172.001 109.94C171.51 110.431 171.234 111.096 171.232 111.79V147.237C171.234 147.931 171.51 148.596 172.001 149.086C172.491 149.577 173.157 149.853 173.851 149.855H209.297C209.991 149.853 210.656 149.577 211.147 149.086C211.638 148.596 211.914 147.931 211.915 147.237V111.79C211.914 111.096 211.638 110.431 211.147 109.94C210.656 109.449 209.991 109.173 209.297 109.172Z" fill="#17202D"/>
<path d="M235.997 110.294C236.394 109.897 236.932 109.673 237.494 109.672H272.939C273.501 109.673 274.039 109.897 274.436 110.294C274.833 110.691 275.057 111.229 275.058 111.791V147.236C275.057 147.797 274.833 148.336 274.436 148.733C274.039 149.13 273.5 149.354 272.939 149.355H237.494C236.932 149.354 236.394 149.13 235.997 148.733C235.6 148.336 235.376 147.798 235.375 147.236V111.791C235.376 111.229 235.6 110.691 235.997 110.294Z" stroke="#17202D"/>
<path d="M136.994 115.015H101.548C100.854 115.014 100.188 114.738 99.6974 114.247C99.2066 113.756 98.9305 113.091 98.9297 112.397V76.9502C98.9305 76.2561 99.2066 75.5906 99.6974 75.0998C100.188 74.6089 100.854 74.3328 101.548 74.332H136.994C137.689 74.3328 138.354 74.6089 138.845 75.0998C139.336 75.5906 139.612 76.2561 139.613 76.9502V112.397C139.612 113.091 139.336 113.756 138.845 114.247C138.354 114.738 137.689 115.014 136.994 115.015Z" fill="#17202D"/>
<path d="M97.8359 198.57L82.9987 203.124L81.2394 197.391L90.3441 194.597C91.0969 194.366 91.8878 194.286 92.6718 194.36C93.4557 194.435 94.2172 194.663 94.9129 195.032C95.6086 195.401 96.2248 195.903 96.7263 196.51C97.2279 197.118 97.6049 197.818 97.8359 198.57Z" fill="#2F2E41"/>
<path d="M56.8477 203.121L41.3274 203.122L41.3271 197.125L50.8509 197.125C51.6384 197.125 52.4181 197.28 53.1457 197.581C53.8732 197.883 54.5343 198.324 55.0911 198.881C55.648 199.438 56.0897 200.099 56.3911 200.826C56.6925 201.554 56.8476 202.334 56.8477 203.121L56.8477 203.121Z" fill="#2F2E41"/>
<path d="M34.2558 143.086C33.8501 142.73 33.5273 142.29 33.3101 141.796C33.093 141.302 32.9868 140.766 32.999 140.227C33.0112 139.687 33.1415 139.157 33.3808 138.674C33.6201 138.19 33.9625 137.765 34.3839 137.428L36.1876 114.715L35.498 109.715L36.5449 99.7148L38.2126 89.2148L45.9991 91.1603L43.998 111.215L42.6116 116.715L42.2802 119.215L39.7647 138.191C40.2838 138.936 40.5115 139.846 40.4045 140.748C40.2976 141.65 39.8634 142.482 39.1844 143.085C38.5053 143.688 37.6285 144.022 36.7202 144.022C35.8118 144.022 34.9349 143.689 34.2558 143.086Z" fill="#FFB8B8"/>
<path d="M43.0273 60.7995C43.0273 55.3356 47.4567 50.9062 52.9206 50.9062C58.3844 50.9062 62.8138 55.3356 62.8138 60.7995C62.8138 64.8095 60.428 68.2623 56.9984 69.8158L57.4984 75.2157L49.4984 75.7157V70.0848C45.721 68.6922 43.0273 65.0604 43.0273 60.7995Z" fill="#FFB8B8"/>
<path d="M42.999 96.2168C42.999 96.2168 42.0176 80.6251 44.4222 77.6938C45.9915 75.7808 48.6164 74.25 52.9988 74.25C64.6801 74.25 65.499 81.7168 65.499 81.7168L69.499 100.717L71.999 114.217L71.499 116.717H70.2133L69.499 118.717L70.749 119.717L70.2133 121.717H45.499L44.499 120.717L45.3029 119.717L44.8617 118.717L44.499 116.717L44.8617 115.217L42.999 96.2168Z" fill="#CACACA"/>
<path d="M34.998 94.6926L38.9897 81.6334C39.257 80.759 39.7132 79.9539 40.3258 79.2751C40.9385 78.5964 41.6928 78.0604 42.5354 77.7052C43.378 77.35 44.2883 77.1842 45.202 77.2195C46.1157 77.2548 47.0105 77.4903 47.8232 77.9095C49.2331 78.6397 50.3126 79.8788 50.8428 81.3755C51.3729 82.8722 51.3141 84.5145 50.6782 85.9694L45.6036 97.5264L34.998 94.6926Z" fill="#CACACA"/>
<path d="M69.998 121.215L82.8798 167.715L83.498 173.715L85.9271 178.715L87.1737 183.215L88.2818 187.215L90.498 191.715V195.215L81.498 198.715L78.4152 194.649V190.215L77.3272 187.215L76.498 183.215L74.9697 180.715L73.498 176.657L72.4309 173.715L59.3138 137.548L54.76 166.715L51.7155 177.715L52.34 182.215L51.7155 186.215L51.4032 188.215L51.091 190.215V192.715L49.998 197.215H41.998L40.998 191.715L42.4125 188.215L43.2645 186.215L42.5967 184.215L43.2645 180.715L42.804 179.715L43.998 170.215L43.4948 164.715L45.498 121.215H49.998H69.998Z" fill="#2F2E41"/>
<path d="M90.5119 103.465C90.3686 103.635 90.239 103.817 90.1242 104.008L70.1714 104.975L69.4987 99.2152L66.3293 93.2461L59.6582 96.4167L61.9987 104.975L65.937 113.887L90.6134 109.061C91.1933 109.694 91.9521 110.135 92.789 110.327C93.6259 110.518 94.5012 110.45 95.2985 110.132C96.0958 109.813 96.7773 109.26 97.2524 108.545C97.7275 107.83 97.9736 106.987 97.958 106.129C97.9424 105.27 97.6659 104.437 97.1653 103.74C96.6646 103.042 95.9635 102.514 95.1552 102.225C94.3469 101.935 93.4697 101.899 92.6402 102.121C91.8108 102.342 91.0685 102.811 90.5119 103.465Z" fill="#FFB8B8"/>
<path d="M56.867 84.6805C56.7601 83.7724 56.854 82.8518 57.1421 81.984C57.4301 81.1161 57.9053 80.3221 58.534 79.6581C59.1626 78.9941 59.9295 78.4763 60.7803 78.1412C61.6311 77.8062 62.5451 77.6621 63.4578 77.7192C65.0423 77.8209 65.4118 78.5008 66.499 79.6581C67.5862 80.8154 67.6135 82.1252 67.6161 83.713L69.3124 96.573L58.4625 98.2424L56.867 84.6805Z" fill="#CACACA"/>
<path d="M49.9979 71.7148C49.4979 70.6052 49.9314 70.6982 49.9979 69.2148C50.0301 68.4979 48.5299 65.3528 47.9979 63.2148C47.4291 60.9289 50.3777 58.1665 50.9979 57.7148C52.1983 56.8407 55.1593 54.5416 56.4979 53.899C57.8365 53.2563 61.1714 56.9485 61.9979 55.7148C62.4972 54.9074 62.9262 58.1614 62.9979 57.2148C63.0697 56.2682 63.018 54.7724 62.6461 53.899C61.877 52.1521 60.5564 50.7054 58.8867 49.7807C56.4063 48.3288 53.47 47.8645 50.6628 48.4804C47.8555 49.0963 45.3832 50.7471 43.7385 53.1039L42.4979 58.2148C40.7708 60.2917 42.6768 65.2445 43.7385 67.7283C44.8002 70.2121 44.4264 69.7168 46.9773 70.6052C49.5655 71.4369 46.8646 73.39 49.4979 72.7148" fill="#2F2E41"/>
<path d="M125.258 203.768H1.47905C1.41595 203.768 1.35343 203.756 1.29508 203.732C1.23673 203.708 1.1837 203.672 1.13902 203.628C1.09433 203.583 1.05888 203.53 1.03469 203.472C1.0105 203.414 0.998047 203.351 0.998047 203.288C0.998047 203.225 1.0105 203.163 1.03469 203.104C1.05888 203.046 1.09433 202.993 1.13902 202.949C1.1837 202.904 1.23673 202.869 1.29508 202.845C1.35343 202.821 1.41595 202.808 1.47905 202.809H125.258C125.321 202.808 125.383 202.821 125.441 202.845C125.5 202.869 125.553 202.904 125.598 202.949C125.642 202.993 125.678 203.046 125.702 203.104C125.726 203.163 125.738 203.225 125.738 203.288C125.738 203.351 125.726 203.414 125.702 203.472C125.678 203.53 125.642 203.583 125.598 203.628C125.553 203.672 125.5 203.708 125.441 203.732C125.383 203.756 125.321 203.768 125.258 203.768Z" fill="#3F3D56"/>
</svg>
