<svg width="375" height="198" viewBox="0 0 375 198" fill="none" xmlns="http://www.w3.org/2000/svg">
<path d="M164.24 5.47709L134.129 111.957L322.889 165.335L353 58.8555L164.24 5.47709Z" fill="#3F3D56"/>
<path d="M167.501 11.4938C168.364 11.4938 169.064 10.7939 169.064 9.9305C169.064 9.06711 168.364 8.36719 167.501 8.36719C166.637 8.36719 165.938 9.06711 165.938 9.9305C165.938 10.7939 166.637 11.4938 167.501 11.4938Z" fill="#6C63FF"/>
<path d="M172.315 12.8571C173.179 12.8571 173.879 12.1572 173.879 11.2938C173.879 10.4304 173.179 9.73047 172.315 9.73047C171.452 9.73047 170.752 10.4304 170.752 11.2938C170.752 12.1572 171.452 12.8571 172.315 12.8571Z" fill="#6C63FF"/>
<path d="M177.128 14.2165C177.991 14.2165 178.691 13.5166 178.691 12.6532C178.691 11.7898 177.991 11.0898 177.128 11.0898C176.264 11.0898 175.564 11.7898 175.564 12.6532C175.564 13.5166 176.264 14.2165 177.128 14.2165Z" fill="#6C63FF"/>
<path d="M264.417 73.0441C261.89 72.5664 259.291 72.6278 256.79 73.2241C257.518 70.723 257.702 68.0949 257.329 65.5167C254.753 66.4492 252.422 67.9535 250.511 69.9167C249.911 67.2435 248.713 64.7411 247.006 62.5977C245.338 64.5987 244.119 66.9339 243.429 69.4461C241.611 67.628 239.428 66.2145 237.025 65.2981C237.025 65.2981 235.887 71.0883 238.628 75.8395C241.067 80.0682 245.755 82.0471 246.757 82.4315L246.78 82.4597L246.793 82.4454C246.894 82.4839 246.951 82.5036 246.951 82.5036C246.951 82.5036 246.973 82.3924 247.002 82.1939C247.02 82.1717 247.039 82.149 247.059 82.1241C247.062 82.1557 247.066 82.1845 247.07 82.2129C246.991 82.3976 246.951 82.5036 246.951 82.5036C246.951 82.5036 247.01 82.5166 247.117 82.537L247.12 82.5558L247.155 82.5441C248.21 82.7414 253.239 83.5102 257.532 81.1852C262.355 78.5731 264.417 73.0441 264.417 73.0441Z" fill="#E25D79"/>
<path d="M255.063 58.2503C257.308 58.2503 259.127 56.4305 259.127 54.1857C259.127 51.9409 257.308 50.1211 255.063 50.1211C252.818 50.1211 250.998 51.9409 250.998 54.1857C250.998 56.4305 252.818 58.2503 255.063 58.2503Z" fill="#E25D79"/>
<path d="M306.098 106.96L183.947 72.418L183.196 75.0755L305.347 109.618L306.098 106.96Z" fill="#7F8BD7"/>
<path d="M212.697 94.8462L191.637 88.8906L185.681 109.951L206.742 115.907L212.697 94.8462Z" fill="#7F8BD7"/>
<path d="M251.809 105.905L230.748 99.9492L224.792 121.01L245.853 126.965L251.809 105.905Z" fill="#7F8BD7"/>
<path d="M290.922 116.967L269.861 111.012L263.906 132.072L284.966 138.028L290.922 116.967Z" fill="#7F8BD7"/>
<path d="M202.842 119.35L187.197 114.926L186.687 116.731L202.332 121.155L202.842 119.35Z" fill="#E25D79"/>
<path d="M241.956 130.412L226.311 125.988L225.8 127.793L241.445 132.218L241.956 130.412Z" fill="#E25D79"/>
<path d="M281.067 141.471L265.422 137.047L264.911 138.852L280.556 143.276L281.067 141.471Z" fill="#E25D79"/>
<path d="M107.694 153.163C165.481 153.163 212.327 151.431 212.327 149.294C212.327 147.158 165.481 145.426 107.694 145.426C49.9064 145.426 3.06055 147.158 3.06055 149.294C3.06055 151.431 49.9064 153.163 107.694 153.163Z" fill="#313035"/>
<path d="M293.577 197.006C338.545 197.006 374.999 195.275 374.999 193.138C374.999 191.002 338.545 189.27 293.577 189.27C248.608 189.27 212.154 191.002 212.154 193.138C212.154 195.275 248.608 197.006 293.577 197.006Z" fill="#17202D"/>
<path d="M253.641 163.113H277.131V172.937H263.464V182.76H277.132V192.583H253.641V163.113ZM281.829 163.113H305.32V171.655H291.653V173.364H305.32V193.011H281.83V184.041H295.497V182.332H281.829L281.829 163.113ZM310.019 163.113H333.509V171.655H319.842V173.364H333.509V193.011H310.019V184.041H323.686V182.332H310.019L310.019 163.113Z" fill="#E25D79"/>
<path d="M48.3379 118.164H58.0283V127.738H66.8931V118.164H76.5841V147.157H66.8936V137.448H58.0289V147.157H48.3385V118.164H48.3379ZM89.3268 127.779H80.797V118.164H107.554V127.779H99.019V147.157H89.3286V127.779H89.3268ZM111.801 118.164H121.905L128.12 128.351L134.33 118.164H144.438V147.157H134.787V132.786L128.12 143.095H127.953L121.282 132.786V147.157H111.801V118.164ZM149.261 118.164H158.954V137.574H172.582V147.157H149.26V118.164H149.261Z" fill="#17202D"/>
<path d="M42.0924 68.8945C42.0924 68.8945 44.2134 81.6203 44.2134 83.4761C44.2134 85.332 43.418 97.2623 42.0924 99.6484C40.7668 102.035 40.5017 103.095 41.0319 104.155C41.5622 105.216 41.297 104.951 41.0319 105.746C40.7668 106.542 40.2366 106.276 41.0319 107.337C41.3567 107.804 41.5308 108.359 41.5308 108.928C41.5308 109.496 41.3567 110.051 41.0319 110.518C40.5017 111.314 42.0924 132.788 39.9714 134.379C38.4988 139.213 36.9988 144.213 36.9988 144.213H30.162L29.4988 139.713V134.713C29.4988 134.713 29.5121 128.713 29.8969 127.751C30.9574 125.1 31.4876 111.049 31.4876 111.049C31.4876 111.049 31.2225 109.723 31.4876 108.928C31.7527 108.132 31.4876 107.602 30.9574 107.337C30.4271 107.072 30.162 106.011 30.162 106.011L29.3666 86.6576L26.1852 105.746C26.1852 105.746 27.8123 134.418 26.9988 135.213V143.213L19.2921 143.713V135.213C19.2921 135.213 18.2316 128.546 19.2921 127.221C20.3526 125.895 16.1107 104.686 16.6409 103.89C17.1711 103.095 16.906 102.83 16.6409 102.3C16.3758 101.769 15.5804 101.239 15.8455 100.709C16.1107 100.179 15.8455 99.1182 15.8455 99.1182C15.8455 99.1182 10.8083 74.1969 13.1944 71.8108C15.5804 69.4248 42.0924 68.8945 42.0924 68.8945Z" fill="#2F2E41"/>
<path d="M32.0175 143.658C32.0175 143.658 33.2566 141.724 37.4985 142.598C37.4985 142.598 36.7897 149.652 36.7897 150.713C36.7897 151.773 38.9106 153.468 38.9106 153.468C38.9106 153.468 43.1525 160.626 37.8501 160.626C32.5478 160.626 32.0175 157.713 32.0175 157.713C31.7524 155.857 30.6919 154.528 29.6314 153.733C28.571 152.937 28.0407 152.937 28.3058 151.877C28.571 150.816 29.6314 145.713 29.6314 145.713C29.6314 145.713 29.3663 141.537 30.8245 142.598L32.2826 143.658" fill="#2F2E41"/>
<path d="M24.4976 143.213C24.4976 143.213 23.7395 142.339 19.4976 143.213C19.4976 143.213 19.8211 148.653 19.8211 149.713C19.8211 150.773 17.7002 153.468 17.7002 153.468C17.7002 153.468 13.4582 160.626 18.7606 160.626C24.063 160.626 23.9976 157.713 23.9976 157.713C23.9976 157.713 25.9189 154.528 26.9793 153.733C28.0398 152.937 28.2627 151.773 27.9976 150.713C27.7324 149.653 27.5096 145.514 27.5096 145.514C27.5096 145.514 27.2445 141.537 25.7863 142.598L24.4095 143.144" fill="#2F2E41"/>
<path d="M32.2832 20.1133C36.2366 20.1133 39.4415 16.9085 39.4415 12.9551C39.4415 9.00172 36.2366 5.79688 32.2832 5.79688C28.3298 5.79688 25.125 9.00172 25.125 12.9551C25.125 16.9085 28.3298 20.1133 32.2832 20.1133Z" fill="#FFB8B8"/>
<path d="M26.449 14.0156C26.449 14.0156 23.5327 25.4158 23.0024 25.6809C22.4722 25.946 35.198 27.0065 35.198 27.0065C35.198 27.0065 32.0165 17.1971 35.198 15.6063L26.449 14.0156Z" fill="#FFB8B8"/>
<path d="M24.587 20.9624L24.5867 20.9609L13.998 26.4232L11.498 50.2135L12.998 72.7135C12.998 72.7135 29.1007 73.1369 31.7519 73.402C34.4031 73.6672 42.8869 71.016 42.8869 71.016L41.498 50.2135L43.998 29.2135C43.9254 28.3422 38.7163 24.7352 38.0941 24.1209C37.472 23.5065 36.6505 23.1351 35.7783 23.0736L34.1861 22.9613C34.1861 22.9613 32.5955 26.8995 27.8098 24.8678C27.0029 24.5168 26.2904 23.98 25.7303 23.3014C25.1703 22.6227 24.7785 21.8212 24.587 20.9624Z" fill="#D0CDE1"/>
<path d="M4.44539 66.5117V70.4885C4.44539 70.4885 2.85467 79.2375 7.89194 78.9723C12.9292 78.7072 10.5431 69.428 10.5431 69.428L8.95242 66.5117H4.44539Z" fill="#FFB8B8"/>
<path d="M51.1065 74.4638L50.5763 78.9709C50.5763 78.9709 53.2275 87.9849 48.1902 88.2501C43.1529 88.5152 46.8093 79.0262 46.8093 79.0262L48.4553 73.9336L51.1065 74.4638Z" fill="#FFB8B8"/>
<path d="M43.6821 28.6C43.9472 28.3349 47.1287 28.9684 47.1287 28.9684C47.1287 28.9684 52.9613 49.5444 52.9613 52.991C52.9613 56.4376 53.7566 76.0564 53.7566 76.0564L46.7583 76.7619L41.0938 49.5033L43.6821 28.6Z" fill="#D0CDE1"/>
<path d="M15.8448 25.6836H13.9889C13.9889 25.6836 8.68652 27.8046 8.4214 30.1906C8.15628 32.5767 0.998047 56.7026 0.998047 56.7026L2.85389 68.8981L9.747 67.8376L11.0726 54.3165L17.9657 39.4698L15.8448 25.6836Z" fill="#D0CDE1"/>
<path d="M31.036 13.8826L31.3167 11.6551C31.3821 11.1359 31.649 10.4532 32.0927 10.5944C32.4701 10.7145 33.2923 11.0823 33.43 10.9713C33.9455 10.5555 34.7256 11.2825 35.2677 10.9132C35.4949 10.7584 35.643 10.4269 35.907 10.4048C36.0841 10.4177 36.251 10.5037 36.3763 10.6468C36.7282 10.9952 37.1428 11.2517 37.5911 11.3981C37.816 11.4678 38.0532 11.4678 38.278 11.398C38.5029 11.3283 38.7073 11.1913 38.87 11.0013C38.9275 10.9001 39.0049 10.8155 39.0962 10.7545C39.2033 10.7193 39.3176 10.7253 39.4214 10.7715L40.8065 11.2008C41.0102 10.3599 41.052 9.47889 40.9291 8.61791C40.8062 7.75692 40.5215 6.93629 40.0944 6.2121C39.5325 5.34377 38.8513 4.58425 38.077 3.96279C37.2192 3.21987 36.334 2.52109 35.4213 1.86646C34.4537 1.08706 33.3553 0.543062 32.1948 0.268424C31.0268 0.0664914 29.7189 0.427768 28.9842 1.48109C28.6386 1.19634 28.3789 0.796856 28.2406 0.337413C28.1582 0.422741 28.0933 0.527621 28.0504 0.64464C28.0075 0.76166 27.9877 0.887967 27.9924 1.01465C27.997 1.14134 28.0261 1.26531 28.0775 1.37781C28.1288 1.49031 28.2013 1.58861 28.2897 1.66576L27.1182 0.814127C26.7889 1.20777 27.4323 1.92157 27.1517 2.36143C27.0669 2.47022 26.958 2.55116 26.8364 2.59585C26.2003 2.87809 25.6173 3.29581 25.1187 3.82664C24.4874 4.64546 24.0252 5.61483 23.7659 6.66359C23.0679 8.94349 22.5606 11.5581 23.5523 13.6922C23.6648 13.9342 25.149 17.9276 25.3467 18.0833C26.0151 18.6097 25.58 17.3357 26.0589 18.0833C26.4345 18.6695 26.3642 16.4259 26.9224 16.9184C27.1412 17.0966 27.4008 17.1988 27.6696 17.2126C27.9384 17.2263 28.205 17.1511 28.437 16.9959C28.6684 16.8132 28.5938 15.7986 28.469 14.8668C28.4451 14.6894 28.4598 14.5079 28.5118 14.3385C28.5639 14.169 28.6516 14.0166 28.7674 13.8947C28.8832 13.7728 29.0235 13.6851 29.176 13.6393C29.3285 13.5935 29.4885 13.5909 29.642 13.6319C30.3372 13.8181 31.0241 13.9772 31.036 13.8826Z" fill="#2F2E41"/>
</svg>
