<svg width="312" height="224" viewBox="0 0 312 224" fill="none" xmlns="http://www.w3.org/2000/svg">
<path d="M228.771 0.34375H1.0957V146.157H228.771V0.34375Z" fill="#B1B1B1"/>
<path d="M222.26 18.6328H7.60547V137.531H222.26V18.6328Z" fill="white"/>
<path d="M228.674 0.214844H0.998047V9.88724H228.674V0.214844Z" fill="#3F3D56"/>
<path d="M8.18545 6.95293C9.17563 6.95293 9.97832 6.15024 9.97832 5.16006C9.97832 4.16988 9.17563 3.36719 8.18545 3.36719C7.19527 3.36719 6.39258 4.16988 6.39258 5.16006C6.39258 6.15024 7.19527 6.95293 8.18545 6.95293Z" fill="white"/>
<path d="M14.9901 6.95293C15.9803 6.95293 16.783 6.15024 16.783 5.16006C16.783 4.16988 15.9803 3.36719 14.9901 3.36719C14 3.36719 13.1973 4.16988 13.1973 5.16006C13.1973 6.15024 14 6.95293 14.9901 6.95293Z" fill="#7F8BD7"/>
<path d="M21.7948 6.95293C22.785 6.95293 23.5877 6.15024 23.5877 5.16006C23.5877 4.16988 22.785 3.36719 21.7948 3.36719C20.8046 3.36719 20.002 4.16988 20.002 5.16006C20.002 6.15024 20.8046 6.95293 21.7948 6.95293Z" fill="#E25D79"/>
<path d="M75.9989 28.4141H34.0156V73.9623H75.9989V28.4141Z" fill="#E6E6E6"/>
<path d="M135.925 28.4141H93.9414V73.9623H135.925V28.4141Z" fill="#E25D79"/>
<path d="M195.849 28.4141H153.865V73.9623H195.849V28.4141Z" fill="#17202D"/>
<path d="M75.9989 82.2031H34.0156V127.751H75.9989V82.2031Z" fill="#E6E6E6"/>
<path d="M135.925 82.2031H93.9414V127.751H135.925V82.2031Z" fill="#E6E6E6"/>
<path d="M195.849 82.2031H153.865V127.751H195.849V82.2031Z" fill="#E6E6E6"/>
<path d="M104.089 93.9116L111.76 90.8789L112.652 106.042C112.652 106.042 114.257 110.68 113.722 112.464C113.722 112.464 114.079 115.497 113.187 115.675C112.295 115.854 109.797 116.211 109.62 116.032C109.444 115.853 109.442 115.318 109.442 115.318C109.442 115.318 107.658 116.567 107.479 117.994C107.479 117.994 99.987 120.313 99.8086 118.172C99.6303 116.032 103.555 114.248 103.555 114.248L106.587 109.61L104.089 93.9116Z" fill="#E25D79"/>
<path d="M120.322 93.9116L127.992 90.8789L128.884 106.042C128.884 106.042 130.49 110.68 129.955 112.464C129.955 112.464 130.311 115.497 129.419 115.675C128.527 115.854 126.029 116.211 125.853 116.032C125.676 115.853 125.674 115.318 125.674 115.318C125.674 115.318 123.89 116.567 123.712 117.994C123.712 117.994 116.219 120.313 116.041 118.172C115.863 116.032 119.787 114.248 119.787 114.248L122.82 109.61L120.322 93.9116Z" fill="#E25D79"/>
<path d="M121.072 35.3538C121.072 35.3538 119.439 39.9178 121.331 41.9759L119.753 47.3976C119.753 47.3976 125.359 64.2146 123.758 66.5637C123.758 66.5637 117.778 69.5533 105.818 65.4958L110.676 46.65L109.983 38.6952L110.943 34.958L113.079 34.7461C113.079 34.7461 111.798 39.5509 114.147 40.2985C116.496 41.046 118.787 34.8662 118.787 34.8662L121.072 35.3538Z" fill="#3F3D56"/>
<path d="M45.6426 64.8169L47.7038 65.6602L57.5415 52.7308L60.6332 67.9086L62.6945 67.5339C64.0166 54.4485 65.0958 41.1017 63.7719 34.789L56.136 34.4609L52.6696 45.518L50.9831 53.0133L45.6426 64.8169Z" fill="#7F8BD7"/>
<path d="M170.743 34.6836C170.743 34.6836 167.93 38.5942 168.067 40.1724C168.205 41.7506 169.988 67.4794 169.988 67.4794L174.174 67.6852L172.938 49.1604L173.967 44.1519L176.506 67.4794L181.651 67.6167L177.055 37.3597L176.163 34.6839L170.743 34.6836Z" fill="#E25D79"/>
<path d="M186.642 97.6884C185.895 96.7922 184.611 96.3077 183.378 96.0456C183.413 95.9337 179.628 95.1515 179.564 95.3125L178.137 94.1758L173.752 96.4524L171.288 94.7751L170.144 95.1812C170.19 94.9792 166.591 95.6028 166.591 95.6028C165.903 95.6275 165.025 95.6706 164.042 95.7462C160.599 96.011 160.334 104.928 160.334 104.928C161.918 104.28 163.607 103.926 165.318 103.884L166.248 114.549C171.034 114.139 176.054 114.616 181.257 115.785L183.696 107.401L189.378 105.192C189.378 105.192 188.407 99.8069 186.642 97.6884Z" fill="#3F3D56"/>
<path d="M64.7188 92.6088C64.1033 91.8704 63.0457 91.471 62.0297 91.2552C62.0601 91.1627 58.9401 90.5186 58.8868 90.6514L57.7108 89.7148L54.0986 91.5907L52.0684 90.2089L51.1256 90.5436C51.164 90.3773 48.198 90.8908 48.198 90.8908C47.633 90.9113 46.9077 90.9466 46.098 91.0091C43.2612 91.2273 43.043 98.5736 43.043 98.5736C44.3482 98.0397 45.7398 97.7483 47.1496 97.7137L47.9162 119.225C51.8597 118.886 55.9957 119.28 60.2813 120.243L62.2914 100.612L66.9729 98.7918C66.9729 98.7918 66.1734 94.3551 64.7188 92.6088Z" fill="white"/>
<path d="M257.774 216.754H249.248C247.807 216.754 246.425 217.326 245.406 218.345C244.387 219.364 243.815 220.746 243.814 222.187V222.363H257.774V216.754Z" fill="#2F2E41"/>
<path d="M308.691 210.617L301.266 214.808C300.011 215.516 299.089 216.694 298.703 218.082C298.316 219.471 298.497 220.955 299.206 222.21L299.293 222.364L311.449 215.501L308.691 210.617Z" fill="#2F2E41"/>
<path d="M280.754 143.066L281.088 144.737C281.088 144.737 282.09 145.739 281.589 146.24C281.088 146.741 281.255 149.08 281.255 149.08C281.535 153.344 292.501 176.534 293.498 181.214C293.498 181.214 295.788 187 301.802 196.855C303.556 199.73 304.899 202.107 305.922 204.032L308.998 210.714L301.802 215.714L298.998 210.714V207.214L285.498 191.714L282.498 185.162L266.221 158.1L261.498 185.162L260.498 201.214C260.09 202.982 260.145 205.627 260.498 208.214C260.634 209.213 259.055 210.725 259.203 211.714C259.543 213.975 259.276 215.618 259.203 217.214L248.998 216.714C248.998 216.714 248.827 214.245 248.998 210.714C249.398 202.417 250.432 188.257 251.018 186.499C251.018 186.499 247.51 157.599 254.526 146.073L260.18 130.999L265.718 128.867L280.754 143.066Z" fill="#2F2E41"/>
<path d="M274.499 81.8397C263.959 82.0198 268.173 99.4478 274.499 99.3398C285.038 99.1597 285.037 82.0181 274.499 81.8397Z" fill="#FFB8B8"/>
<path d="M272.998 101.715L273.498 95.7148H277.998L278.998 101.715H272.998Z" fill="#FFB8B8"/>
<path d="M267.713 90.2157L269.504 87.7351L270.998 85.183L273.998 84.2157L279.545 87.7351L279.227 85.183L281.609 87.7351L283.998 92.2157L284.998 86.3407C284.999 85.2724 284.406 83.703 283.998 82.7157C283.59 81.7284 282.361 81.3538 281.606 80.5979C280.851 79.8419 279.954 79.242 278.968 78.8324C277.981 78.4229 276.923 78.2117 275.855 78.2109C274.786 78.2102 273.485 78.8075 272.498 79.2157C271.511 79.6238 270.856 79.8348 270.1 80.5897C269.802 80.8879 269.553 81.2844 269.336 81.7157C269.004 82.3763 267.961 83.1187 267.713 83.7157C267.304 84.7025 267.714 85.2724 267.713 86.3407V86.3522L266.998 88.2157L267.713 90.2157Z" fill="#2F2E41"/>
<path d="M264.955 100.852L284.872 101.013L283.498 129.216L280.664 143.713C280.664 143.713 257.372 142.484 257.357 135.374V129.216L264.955 100.852Z" fill="#3F3D56"/>
<path d="M285.729 147.84C285.423 147.465 285.202 147.027 285.084 146.558C284.965 146.089 284.95 145.599 285.041 145.124C285.132 144.648 285.326 144.199 285.61 143.806C285.893 143.414 286.259 143.088 286.682 142.853L285.817 135.336L290.257 133.695L291.33 144.329C291.676 145.065 291.741 145.903 291.512 146.684C291.283 147.465 290.775 148.135 290.086 148.567C289.396 148.999 288.572 149.164 287.769 149.03C286.967 148.896 286.241 148.473 285.729 147.84Z" fill="#FFB6B6"/>
<path d="M282.253 104.69L284.874 101.027C284.874 101.027 289.379 101.743 291.498 104.215C293.617 106.687 292.141 136.473 292.141 136.473L284.372 138.238L279.781 116.344L282.253 104.69Z" fill="#3F3D56"/>
<path d="M238.354 138.2L238.931 165.652L256.703 175.043L289.067 169.264L289.862 140.728L269.345 133.504L238.354 138.2Z" fill="white"/>
<path d="M256.657 175.338L238.651 165.823L238.064 137.955L269.373 133.211L269.439 133.234L290.151 140.527L289.345 169.501L256.657 175.338ZM239.212 165.477L256.749 174.745L288.79 169.023L289.573 140.925L269.318 133.793L238.642 138.441L239.212 165.477Z" fill="#CACACA"/>
<path d="M256.306 145.64L256.236 145.613L238.248 138.461L238.457 137.934L256.376 145.058L289.823 140.445L289.9 141.007L256.306 145.64Z" fill="#CACACA"/>
<path d="M256.624 145.349L256.057 145.355L256.418 175.047L256.985 175.04L256.624 145.349Z" fill="#CACACA"/>
<path d="M254.033 144.22L247.549 141.591L278.764 136.617L285.249 139.246L254.033 144.22Z" fill="#CACACA"/>
<path d="M238.465 146.162L238.24 146.684L245.761 149.922L245.985 149.4L238.465 146.162Z" fill="#CACACA"/>
<path d="M139.475 176.337L140.052 203.788L157.824 213.18L190.188 207.401L190.983 178.865L170.466 171.641L139.475 176.337Z" fill="#E25D79"/>
<path d="M157.778 213.478L139.772 203.963L139.186 176.095L170.494 171.352L170.561 171.375L191.273 178.668L190.466 207.641L157.778 213.478ZM140.333 203.617L157.87 212.885L189.911 207.164L190.694 179.066L170.439 171.934L139.764 176.582L140.333 203.617Z" fill="#17202D"/>
<path d="M157.429 183.781L157.359 183.754L139.371 176.601L139.58 176.074L157.499 183.198L190.946 178.585L191.023 179.148L157.429 183.781Z" fill="#17202D"/>
<path d="M157.747 183.485L157.18 183.492L157.541 213.184L158.108 213.177L157.747 183.485Z" fill="#17202D"/>
<path d="M153.583 181.714L148.67 179.732L179.885 174.758L184.799 176.74L153.583 181.714Z" fill="#17202D"/>
<path d="M139.588 184.299L139.363 184.82L146.884 188.058L147.108 187.537L139.588 184.299Z" fill="#17202D"/>
<path d="M142.992 193.666L142.768 194.188L150.288 197.425L150.513 196.904L142.992 193.666Z" fill="#3F3D56"/>
<path d="M170.35 180.099L171.021 211.967L191.65 222.869L229.22 216.16L230.143 183.035L206.326 174.648L170.35 180.099Z" fill="#7F8BD7"/>
<path d="M191.596 223.215L170.695 212.169L170.014 179.819L206.358 174.312L206.435 174.34L230.478 182.806L229.542 216.439L191.596 223.215ZM171.345 211.768L191.704 222.527L228.898 215.885L229.806 183.268L206.294 174.988L170.685 180.384L171.345 211.768Z" fill="#3F3D56"/>
<path d="M191.189 188.744L191.108 188.711L170.227 180.409L170.47 179.797L191.271 188.067L230.096 182.712L230.186 183.365L191.189 188.744Z" fill="#3F3D56"/>
<path d="M191.559 188.398L190.9 188.406L191.32 222.873L191.979 222.865L191.559 188.398Z" fill="#3F3D56"/>
<path d="M187.061 186.356L181.023 184.04L217.259 178.266L223.298 180.582L187.061 186.356Z" fill="#3F3D56"/>
<path d="M170.479 189.344L170.219 189.949L178.949 193.708L179.209 193.103L170.479 189.344Z" fill="#3F3D56"/>
<path d="M174.432 200.219L174.172 200.824L182.902 204.583L183.163 203.978L174.432 200.219Z" fill="#3F3D56"/>
<path d="M248.429 142.738C248.867 142.533 249.255 142.233 249.565 141.862C249.875 141.49 250.099 141.055 250.223 140.587C250.347 140.119 250.366 139.629 250.28 139.153C250.194 138.677 250.005 138.225 249.726 137.83L253.759 131.427L250.467 128.027L244.897 137.149C244.265 137.662 243.842 138.39 243.71 139.194C243.578 139.998 243.745 140.823 244.181 141.512C244.616 142.201 245.289 142.706 246.072 142.932C246.854 143.158 247.693 143.089 248.429 142.739V142.738Z" fill="#FFB6B6"/>
<path d="M268.015 102.533L265.126 100.629C265.126 100.629 258.869 100.652 256.497 105.214C254.126 109.776 248.588 130.648 248.588 130.648L252.519 134.638L263.008 118.638L268.015 102.533Z" fill="#3F3D56"/>
</svg>
