<svg width="11" height="11" viewBox="0 0 11 11" fill="none" xmlns="http://www.w3.org/2000/svg">
<path d="M4.96366 5.41438C4.92049 5.2819 4.88164 5.15369 4.83847 5.02121C4.7953 4.88873 4.75645 4.76479 4.72191 4.64086C4.68738 4.5212 4.65716 4.41009 4.62694 4.30752H4.61831C4.57946 4.49128 4.53197 4.67505 4.47153 4.85881C4.40678 5.06394 4.34203 5.27762 4.27296 5.4913C4.21252 5.70925 4.14777 5.91011 4.08301 6.0896H5.17951C5.1536 5.99943 5.11907 5.89302 5.08022 5.78148C5.04136 5.66652 5.00251 5.54258 4.96366 5.41438ZM8.94384 0.957031H2.25265C1.23818 0.957031 0.417969 1.76901 0.417969 2.7733V9.14094C0.417969 10.1452 1.23818 10.9572 2.25265 10.9572H8.94384C9.95831 10.9572 10.7785 10.1452 10.7785 9.14094V2.7733C10.7785 1.76901 9.95831 0.957031 8.94384 0.957031ZM6.76381 8.02126H5.86114C5.83136 8.02554 5.80114 8.00417 5.7925 7.97425L5.43852 6.95714H3.83263L3.50455 7.96143C3.49592 7.9999 3.46138 8.02554 3.42253 8.02169H2.61095C2.56347 8.02169 2.55052 7.99562 2.56347 7.94477L3.95351 3.98273C3.96646 3.93999 3.97941 3.89298 3.99668 3.8417C4.01394 3.75195 4.02258 3.65794 4.02258 3.56392C4.01826 3.54255 4.03553 3.52118 4.05711 3.51691H5.17519C5.20972 3.51691 5.22699 3.52973 5.23131 3.5511L6.80698 7.95289C6.81993 7.99947 6.80697 8.02126 6.76381 8.02126ZM8.23155 7.95716C8.23155 8.00417 8.21472 8.02554 8.17586 8.02554H7.32932C7.28615 8.02554 7.26457 7.99947 7.26457 7.95716V4.6665C7.26457 4.62376 7.28227 4.60667 7.32112 4.60667H8.17586C8.21472 4.60667 8.23155 4.62804 8.23155 4.6665V7.95716ZM8.14133 4.09811C8.09035 4.14937 8.02888 4.18924 7.96105 4.21504C7.89321 4.24083 7.82059 4.25197 7.74806 4.24769C7.6056 4.25196 7.46746 4.19641 7.36342 4.09811C7.26452 3.99106 7.21184 3.84995 7.21665 3.70494C7.21233 3.55964 7.26845 3.42289 7.37162 3.3246C7.47609 3.2263 7.61423 3.17502 7.75669 3.17502C7.92548 3.17502 8.05413 3.2263 8.14953 3.3246C8.2445 3.42716 8.2963 3.56392 8.29199 3.70494C8.2963 3.85025 8.2445 3.99127 8.14133 4.09811Z" fill="#E25D79"/>
</svg>
