<svg width="30" height="23" viewBox="0 0 30 23" fill="none" xmlns="http://www.w3.org/2000/svg">
<path d="M29.7403 7.59764L29.7398 7.59709L29.6915 7.54877C29.6909 7.54822 29.6909 7.54822 29.6909 7.54822L22.9006 0.756821C22.8902 0.74584 22.8792 0.734859 22.8682 0.724427C22.6942 0.558609 22.4598 0.457031 22.2012 0.457031C21.9448 0.457031 21.7115 0.556961 21.5386 0.720034L18.102 4.15719L16.9749 3.0305L16.494 2.54952C15.227 1.3888 13.5718 0.644263 11.7454 0.533901C11.5884 0.524566 11.4303 0.519625 11.2705 0.519625C11.1102 0.519625 10.9516 0.524566 10.7935 0.533901C9.53739 0.610221 8.36258 0.986331 7.33929 1.5914C7.05656 1.75887 6.78482 1.94335 6.5268 2.14431C6.39889 2.24369 6.27372 2.34747 6.1524 2.45508L6.15679 2.45948C6.15404 2.45893 6.15075 2.45893 6.148 2.45893C6.03491 2.45234 5.92073 2.44904 5.80599 2.44904C5.48319 2.44904 5.16588 2.4754 4.85736 2.52646C2.10204 2.97944 0 5.37227 0 8.25597C0 8.78088 0.0697202 9.28931 0.199828 9.77249C0.366168 10.3891 0.631325 10.964 0.977181 11.4812C0.97773 11.4817 0.97773 11.4823 0.978279 11.4828C1.04965 11.5762 1.11772 11.6717 1.18305 11.7689C1.18469 11.7711 1.18579 11.7733 1.18744 11.7749C1.76716 12.6392 2.12674 13.6637 2.18493 14.7679C2.19427 14.9463 2.34139 15.0875 2.52146 15.0875C2.70756 15.0875 2.85853 14.9365 2.85853 14.7503V14.7421C2.85798 14.735 2.85743 14.7284 2.85743 14.7212C2.85688 14.719 2.85688 14.7174 2.85688 14.7157C2.82559 14.1436 2.72128 13.5907 2.5533 13.0663C2.3617 12.4668 2.08721 11.9051 1.74301 11.3933C1.74246 11.3922 1.74136 11.3911 1.74081 11.3895C1.66395 11.2901 1.59039 11.1874 1.52122 11.082C1.52067 11.0815 1.52067 11.0815 1.52067 11.0809C0.984867 10.2705 0.673596 9.2992 0.673596 8.25487C0.673596 5.5348 2.78936 3.30833 5.46508 3.13318C5.46782 3.13263 5.47057 3.13263 5.47386 3.13263C5.47221 3.13428 5.47111 3.13593 5.46947 3.13757C5.36242 3.25892 5.25921 3.38301 5.16039 3.51094C4.95947 3.769 4.77446 4.04079 4.60757 4.32356C4.0026 5.34702 3.62655 6.52257 3.55024 7.77828C3.54091 7.93586 3.53597 8.09509 3.53597 8.25487C3.53597 8.41465 3.54091 8.57388 3.55024 8.73146C3.65839 10.5088 4.36602 12.1236 5.47441 13.3771C5.50735 13.415 5.54138 13.4523 5.57542 13.4897L6.03711 13.9514L6.13812 14.0525L7.17185 15.0869L7.1724 15.0875L8.69032 16.6056L14.6522 22.5674C14.6528 22.5679 14.6533 22.5685 14.6539 22.5696L14.6583 22.574L14.7154 22.6311L14.7197 22.6355C14.7208 22.636 14.7214 22.6366 14.7219 22.6377C14.8932 22.7925 15.1205 22.8869 15.3703 22.8869C15.6184 22.8869 15.8441 22.7936 16.0148 22.6404L16.0905 22.5646L26.3004 12.3537L29.6805 8.97305C29.6816 8.97195 29.6821 8.9714 29.6832 8.9703L29.7486 8.90497C29.7497 8.90387 29.7502 8.90277 29.7513 8.90222C29.9056 8.73091 30 8.5036 30 8.25542C29.9995 8.00175 29.9012 7.77005 29.7403 7.59764ZM6.84411 4.51353C7.05217 4.26755 7.2811 4.03859 7.52704 3.82995C7.63958 3.73441 7.75596 3.64381 7.87564 3.55706C7.88772 3.54827 7.90034 3.53894 7.91242 3.5307L7.99257 3.61087L10.4509 6.06959L10.587 6.20576L11.2705 6.88934L10.5876 7.57238C10.5931 7.57787 10.5986 7.58336 10.6035 7.58885C10.598 7.58391 10.5925 7.57842 10.587 7.57293L9.90356 8.25652L9.22009 7.57293L6.54492 4.89733C6.63989 4.76555 6.73925 4.63707 6.84411 4.51353ZM8.53825 13.7225L7.17185 12.3558C6.12275 11.3066 5.47441 9.85705 5.47441 8.25652C5.47441 7.36154 5.67698 6.51433 6.03986 5.75717L9.24644 8.96426C9.41882 9.12514 9.65048 9.22342 9.90521 9.22342C10.1599 9.22342 10.3916 9.12514 10.564 8.96426C10.5651 8.96317 10.5662 8.96262 10.5667 8.96152L10.6085 8.91979L10.6095 8.91869L10.9274 8.60078L11.6027 7.92488L11.9298 7.59764L11.9309 7.59654L11.9749 7.55261L11.9792 7.54822C12.1401 7.37582 12.2384 7.14411 12.2384 6.88934C12.2384 6.63897 12.1434 6.41056 11.9869 6.23925L8.77157 3.02337C9.52806 2.66098 10.3762 2.45838 11.2711 2.45838C12.8422 2.45838 14.2674 3.08376 15.3121 4.09954C15.3148 4.10173 15.3176 4.10503 15.3209 4.10777L15.4191 4.20606C15.4219 4.2088 15.4246 4.21155 15.4274 4.21429L16.7367 5.52327L10.1325 12.1285C9.98975 12.2878 9.83823 12.4399 9.67848 12.5826L8.53825 13.7225ZM15.3703 20.5545L15.3692 20.554L15.3686 20.5545L10.7935 15.9786H10.7946L9.90411 15.088L17.0578 7.93312L18.1015 6.88989L18.7427 6.24858L19.4679 5.52327L22.2007 2.79001L27.6663 8.25652L15.3703 20.5545Z" fill="#E25D79"/>
</svg>
