<?xml version="1.0" encoding="utf-8"?>
<!-- Generator: Adobe Illustrator 24.0.2, SVG Export Plug-In . SVG Version: 6.00 Build 0)  -->
<svg version="1.1" id="Capa_1" xmlns="http://www.w3.org/2000/svg" xmlns:xlink="http://www.w3.org/1999/xlink" x="0px" y="0px"
	 viewBox="0 0 595.28 841.89" style="enable-background:new 0 0 595.28 841.89;" xml:space="preserve">
<style type="text/css">
	.st0{fill:#E25D79;}
</style>
<path class="st0" d="M356.49,520.2v-17.23h-18.38v-19.15h17.87v-35.74h17.74V267.31h-17.87v18.13h-17.36v15.32v3.4H320.4v16.85
	h-73.36v-17.19h-17.87V285.6h-18.55v-18.3h-17.02v1.79v176.17h18.89v36.77h16.34v21.96h-17.62v16.85h-37.53v-18.38h15.83v-17.87
	h-15.83v17.39H156.7v19.05h16.56v17.68h19.5v17.87h54.83v18h17.75v-35.74h37.02v35.74h17.49v-18.13h35.87v-17.49h18.64V520.2H356.49
	z M228.57,539.35h-16.47v-16.47h16.47V539.35z M210.24,375.71v-36.66h36.66v36.66H210.24z M263.67,429.52H246.9v-16.77h16.77V429.52
	z M319.13,429.52h-16.77v-16.77h16.77V429.52z M320.45,339.05h36.66v36.66h-36.66V339.05z M353.38,539.35h-16.47v-16.47h16.47
	V539.35z"/>
</svg>
