<svg width="12" height="12" viewBox="0 0 12 12" fill="none" xmlns="http://www.w3.org/2000/svg">
<path d="M5.28636 4.55633C5.11691 4.48818 4.93373 4.46092 4.74596 4.46547C4.62689 4.46547 4.52156 4.46547 4.43454 4.47001C4.34295 4.46547 4.27883 4.47001 4.24678 4.47455V6.0011C4.31089 6.00564 4.37043 6.01018 4.42538 6.01018H4.66811C4.84671 6.01018 5.02532 5.98292 5.19477 5.9284C5.34132 5.88751 5.46955 5.80119 5.5703 5.68761C5.66647 5.57403 5.71227 5.41956 5.71227 5.21965C5.71685 5.07881 5.68021 4.93797 5.60694 4.8153C5.53058 4.69734 5.41827 4.60662 5.28636 4.55633ZM9.82023 0.867188H2.72175C1.64553 0.867188 0.775391 1.73041 0.775391 2.79808V9.56712C0.775391 10.6348 1.64553 11.498 2.72175 11.498H9.82023C10.8964 11.498 11.7666 10.6348 11.7666 9.56712V2.79808C11.7666 1.73041 10.8964 0.867188 9.82023 0.867188ZM6.4354 6.16011C6.25267 6.41453 5.99621 6.60535 5.69853 6.71439C5.38711 6.82797 5.04364 6.86886 4.66811 6.86886C4.55819 6.86886 4.48492 6.86886 4.43912 6.86432C4.39333 6.85978 4.32921 6.85978 4.2422 6.85978V8.31771C4.24678 8.34952 4.22388 8.37723 4.19182 8.38177H3.30337C3.26673 8.38177 3.24841 8.36315 3.24841 8.32226V3.64768C3.24841 3.61587 3.26215 3.5977 3.29421 3.5977C3.37206 3.5977 3.44533 3.5977 3.55067 3.59316C3.66058 3.58861 3.77507 3.58861 3.89872 3.58407C4.02237 3.57953 4.15518 3.57953 4.29715 3.57498C4.43912 3.57044 4.57651 3.57044 4.7139 3.57044C5.08943 3.57044 5.40085 3.61587 5.65731 3.71128C5.8863 3.78852 6.09696 3.91573 6.27099 4.08383C6.41754 4.22922 6.53203 4.4064 6.6053 4.60176C6.67354 4.79258 6.71018 4.98794 6.71018 5.19239C6.71064 5.58311 6.61904 5.90569 6.4354 6.16011ZM9.68284 7.92745C9.55461 8.10918 9.37554 8.24957 9.16992 8.33225C8.94551 8.42721 8.67073 8.47673 8.34054 8.47673C8.13033 8.47673 7.92379 8.45901 7.71816 8.41812C7.55787 8.39041 7.39759 8.34089 7.25104 8.27274C7.21898 8.25502 7.19562 8.22321 7.2002 8.18687V7.39634C7.2002 7.38316 7.20524 7.36453 7.21898 7.35545C7.23226 7.34636 7.24646 7.3509 7.2602 7.35999C7.4388 7.46449 7.62657 7.53763 7.82807 7.58261C8.00164 7.62804 8.18483 7.65076 8.36847 7.65076C8.5425 7.65076 8.66615 7.62759 8.74859 7.5867C8.82186 7.5549 8.87224 7.47766 8.87224 7.39588C8.87224 7.33182 8.8356 7.27321 8.76233 7.21415C8.68905 7.15554 8.53838 7.08739 8.31398 7.00016C8.08041 6.91838 7.86563 6.80934 7.66366 6.6735C7.52036 6.57168 7.40138 6.43984 7.31515 6.28732C7.24236 6.14358 7.20635 5.98427 7.21028 5.82345C7.21028 5.62809 7.26523 5.44182 7.36644 5.27372C7.48094 5.09198 7.64992 4.9466 7.84685 4.85573C8.06164 4.74715 8.33184 4.69717 8.65699 4.69717C8.84476 4.69717 9.03711 4.7108 9.22487 4.73806C9.36226 4.75624 9.49507 4.79258 9.61872 4.84256C9.63658 4.8471 9.65536 4.86527 9.66452 4.88345C9.6691 4.90162 9.67368 4.91979 9.67368 4.93797V5.67852C9.67368 5.6967 9.66452 5.71487 9.65078 5.72395C9.60956 5.73304 9.58667 5.73304 9.56835 5.72395C9.43096 5.65126 9.28441 5.60129 9.1287 5.56948C8.95925 5.53314 8.7898 5.51042 8.61578 5.51042C8.52418 5.50588 8.42801 5.51951 8.34054 5.54222C8.28146 5.55585 8.23063 5.58766 8.19857 5.63309C8.17567 5.66944 8.16193 5.71487 8.16193 5.75576C8.16193 5.79665 8.18025 5.83754 8.20819 5.87388C8.2494 5.92386 8.3039 5.96475 8.36389 5.99655C8.46877 6.05107 8.57914 6.10105 8.68859 6.14648C8.93635 6.22826 9.17449 6.34184 9.39432 6.47814C9.54545 6.57309 9.6691 6.70076 9.75565 6.85523C9.82893 6.99971 9.86557 7.15963 9.86099 7.32274C9.86602 7.53672 9.80191 7.7498 9.68284 7.92745Z" fill="#E25D79"/>
</svg>
